<svg width="22" height="24" viewBox="0 0 22 24" fill="none" xmlns="http://www.w3.org/2000/svg">
<path d="M12.5664 7.37397C12.6598 7.37397 12.7494 7.33686 12.8155 7.2708C12.8815 7.20473 12.9187 7.11513 12.9187 7.02171V6.45789C12.9172 6.36546 12.8794 6.27733 12.8135 6.21249C12.7476 6.14766 12.6588 6.11133 12.5664 6.11133C12.474 6.11133 12.3852 6.14766 12.3193 6.21249C12.2534 6.27733 12.2156 6.36546 12.2141 6.45789V7.02171C12.2141 7.06797 12.2232 7.11378 12.2409 7.15652C12.2586 7.19926 12.2846 7.2381 12.3173 7.27081C12.35 7.30352 12.3888 7.32947 12.4316 7.34717C12.4743 7.36487 12.5201 7.37398 12.5664 7.37397ZM9.48216 7.37397C9.57559 7.37397 9.66519 7.33686 9.73125 7.2708C9.79731 7.20473 9.83442 7.11513 9.83442 7.02171V6.45789C9.83292 6.36546 9.79514 6.27733 9.72924 6.21249C9.66334 6.14766 9.5746 6.11133 9.48216 6.11133C9.38971 6.11133 9.30098 6.14766 9.23508 6.21249C9.16918 6.27733 9.1314 6.36546 9.12989 6.45789V7.02171C9.12989 7.11513 9.16701 7.20473 9.23307 7.2708C9.29913 7.33686 9.38873 7.37397 9.48216 7.37397ZM9.79824 8.86136C9.90671 9.12077 10.285 9.5553 11.0243 9.5553C11.7635 9.5553 12.1418 9.12082 12.2503 8.86136C12.2704 8.81692 12.282 8.76775 12.282 8.71582C12.282 8.62223 12.2448 8.53247 12.1786 8.46629C12.1124 8.40012 12.0227 8.36294 11.9291 8.36294C11.8593 8.36291 11.791 8.38357 11.7329 8.42232C11.6749 8.46106 11.6296 8.51615 11.6028 8.58063C11.5896 8.60814 11.4608 8.84941 11.0242 8.84941C10.5877 8.84941 10.4588 8.6081 10.4456 8.58058C10.4188 8.51611 10.3735 8.46106 10.3155 8.42232C10.2574 8.38357 10.1891 8.36291 10.1193 8.36294C10.0257 8.36294 9.93599 8.40012 9.86981 8.46629C9.80363 8.53247 9.76646 8.62223 9.76646 8.71582C9.76657 8.76604 9.77741 8.81566 9.79824 8.86136ZM4.41919 21.9029C4.51262 21.9029 4.60222 21.8658 4.66828 21.7997C4.73434 21.7336 4.77146 21.644 4.77146 21.5506V17.6654C4.77146 17.572 4.73434 17.4824 4.66828 17.4163C4.60222 17.3502 4.51262 17.3131 4.41919 17.3131H3.58875C3.49632 17.3146 3.40819 17.3524 3.34335 17.4183C3.27852 17.4842 3.24219 17.5729 3.24219 17.6654C3.24219 17.7578 3.27852 17.8466 3.34335 17.9125C3.40819 17.9784 3.49632 18.0161 3.58875 18.0176H4.06697V21.5507C4.06697 21.6441 4.10408 21.7337 4.17013 21.7997C4.23619 21.8658 4.32578 21.9029 4.41919 21.9029ZM5.48339 20.4271C5.48339 21.2408 6.14541 21.9028 6.95916 21.9028C7.77291 21.9028 8.43493 21.2408 8.43493 20.4271C8.43493 19.9459 8.20341 19.5179 7.84599 19.2483C8.02303 19.0431 8.13047 18.7761 8.13047 18.4844C8.13047 17.8385 7.605 17.3131 6.95911 17.3131C6.31322 17.3131 5.78775 17.8385 5.78775 18.4844C5.78775 18.7761 5.89519 19.0431 6.07224 19.2483C5.71491 19.5179 5.48339 19.9459 5.48339 20.4271ZM6.95916 21.1984C6.53391 21.1984 6.18792 20.8524 6.18792 20.4271C6.18792 20.0018 6.53391 19.6558 6.95916 19.6558C7.38446 19.6558 7.73044 20.0018 7.73044 20.4271C7.73044 20.8524 7.38446 21.1984 6.95916 21.1984ZM6.49233 18.4845C6.49233 18.227 6.70177 18.0176 6.95916 18.0176C7.21655 18.0176 7.42603 18.2271 7.42603 18.4845C7.42603 18.7419 7.2166 18.9513 6.95916 18.9513C6.70172 18.9513 6.49233 18.7419 6.49233 18.4845ZM17.2204 21.8871C17.2308 21.8871 17.2414 21.887 17.2519 21.8868C18.0552 21.8706 18.7171 21.2298 18.7587 20.4281C18.7808 20.0011 18.6313 19.5956 18.3375 19.2861C18.0478 18.981 17.6406 18.806 17.2203 18.806C17.0792 18.806 16.9593 18.8139 16.8524 18.8289L16.9994 17.942H18.1605C18.2067 17.942 18.2525 17.9329 18.2953 17.9152C18.338 17.8975 18.3768 17.8715 18.4095 17.8388C18.4423 17.8061 18.4682 17.7673 18.4859 17.7245C18.5036 17.6818 18.5127 17.636 18.5127 17.5897C18.5127 17.5435 18.5036 17.4977 18.4859 17.4549C18.4682 17.4122 18.4423 17.3733 18.4095 17.3406C18.3768 17.3079 18.338 17.282 18.2953 17.2643C18.2525 17.2466 18.2067 17.2375 18.1605 17.2375H16.7007C16.6172 17.2375 16.5365 17.2671 16.4729 17.3211C16.4092 17.375 16.3668 17.4498 16.3532 17.5322L16.064 19.2776C16.0535 19.3419 16.061 19.4078 16.0857 19.4681C16.1104 19.5284 16.1513 19.5806 16.2039 19.619C16.2566 19.6575 16.319 19.6806 16.384 19.6858C16.449 19.691 16.5142 19.6781 16.5724 19.6485C16.5754 19.647 16.5873 19.6411 16.6065 19.6325C16.7702 19.5588 16.9013 19.5105 17.2203 19.5105C17.4517 19.5105 17.667 19.6031 17.8265 19.7712C17.986 19.9391 18.0672 20.1595 18.0551 20.3915C18.0326 20.8263 17.6735 21.1736 17.2377 21.1825C16.8128 21.1911 16.4506 20.8819 16.3923 20.4637C16.3869 20.4249 16.3842 20.3857 16.3842 20.3465C16.3827 20.2541 16.3449 20.166 16.279 20.1011C16.2131 20.0363 16.1244 20 16.0319 20C15.9395 20 15.8507 20.0363 15.7848 20.1011C15.7189 20.166 15.6812 20.2541 15.6796 20.3465C15.6796 20.4181 15.6847 20.4902 15.6945 20.5609C15.8008 21.3222 16.4537 21.8872 17.2204 21.8871ZM14.9709 18.5681C14.9709 17.8257 14.3669 17.2217 13.6245 17.2217C12.9825 17.2217 12.4269 17.6784 12.3033 18.3075C12.2944 18.3529 12.2945 18.3996 12.3037 18.445C12.3128 18.4903 12.3308 18.5334 12.3566 18.5718C12.3823 18.6102 12.4154 18.6431 12.454 18.6688C12.4925 18.6944 12.5357 18.7121 12.5811 18.721C12.6265 18.73 12.6732 18.7299 12.7185 18.7207C12.7638 18.7116 12.807 18.6936 12.8454 18.6678C12.8838 18.642 12.9167 18.6089 12.9423 18.5704C12.9679 18.5319 12.9857 18.4887 12.9946 18.4433C13.0535 18.1437 13.3184 17.9262 13.6245 17.9262C13.9784 17.9262 14.2664 18.2141 14.2664 18.5681C14.2664 18.922 13.9784 19.21 13.6245 19.21C13.532 19.2115 13.4439 19.2493 13.3791 19.3152C13.3142 19.3811 13.2779 19.4698 13.2779 19.5623C13.2779 19.6547 13.3142 19.7435 13.3791 19.8094C13.4439 19.8752 13.532 19.913 13.6245 19.9145C13.9784 19.9145 14.2664 20.2025 14.2664 20.5564C14.2664 20.9104 13.9784 21.1983 13.6245 21.1983C13.306 21.1983 13.0327 20.9611 12.9887 20.6463C12.9846 20.6166 12.9825 20.5865 12.9825 20.5564C12.981 20.464 12.9433 20.3759 12.8774 20.311C12.8115 20.2462 12.7227 20.2099 12.6303 20.2099C12.5378 20.2099 12.4491 20.2462 12.3832 20.311C12.3173 20.3759 12.2795 20.464 12.278 20.5564C12.278 20.6191 12.2824 20.6822 12.291 20.7438C12.3832 21.4045 12.9564 21.9028 13.6244 21.9028C14.3668 21.9028 14.9708 21.2988 14.9708 20.5564C14.9708 20.1631 14.8013 19.8086 14.5314 19.5622C14.8013 19.3159 14.9709 18.9615 14.9709 18.5681ZM9.76036 19.21C9.66793 19.2116 9.5798 19.2493 9.51496 19.3152C9.45013 19.3811 9.4138 19.4699 9.4138 19.5623C9.4138 19.6548 9.45013 19.7435 9.51496 19.8094C9.5798 19.8753 9.66793 19.9131 9.76036 19.9146H10.8962C10.9896 19.9146 11.0792 19.8775 11.1453 19.8114C11.2113 19.7453 11.2485 19.6557 11.2485 19.5623C11.2485 19.4689 11.2113 19.3793 11.1453 19.3132C11.0792 19.2472 10.9896 19.21 10.8962 19.21H9.76036Z" fill="#0A9829"/>
<path d="M19.3521 15.1241H16.8228C16.1992 13.2477 15.1499 12.1066 14.3626 11.4731C13.9722 11.159 13.6084 10.9362 13.3188 10.7835C14.1376 10.17 14.7029 9.23658 14.8299 8.17059C14.8921 8.17828 14.955 8.1825 15.0187 8.1825C15.8554 8.1825 16.536 7.50187 16.536 6.66525C16.536 6.18141 16.3081 5.75011 15.9543 5.47209C16.212 4.70339 16.2557 3.86494 16.074 3.08002C16.053 2.989 15.9966 2.91008 15.9174 2.86061C15.8381 2.81115 15.7425 2.79519 15.6515 2.81625C15.5605 2.83731 15.4815 2.89366 15.4321 2.97291C15.3826 3.05216 15.3666 3.14781 15.3877 3.23883C15.5346 3.87342 15.5056 4.55011 15.3097 5.17631C15.2139 5.15754 15.1164 5.14806 15.0187 5.148C14.8464 5.148 14.6792 5.1765 14.5194 5.23242C13.532 4.70053 12.4581 3.18548 12.447 3.16959C12.4194 3.13026 12.384 3.09699 12.343 3.07185C12.302 3.04671 12.2563 3.03023 12.2087 3.02341C12.1611 3.0166 12.1126 3.0196 12.0662 3.03222C12.0199 3.04485 11.9765 3.06684 11.939 3.09684C11.9151 3.11592 9.56311 4.97864 7.5952 5.25727C7.41578 5.1848 7.22405 5.14769 7.03055 5.14795C6.92245 5.14795 6.81698 5.15953 6.71522 5.18114C6.59859 3.89812 6.86798 2.86608 7.51884 2.10914C8.40933 1.07348 9.91369 0.704484 11.0246 0.704484C12.1209 0.704484 12.7278 1.31292 12.7515 1.3373C12.8325 1.42223 12.952 1.46095 13.0678 1.44122C13.0758 1.43986 13.876 1.30973 14.5438 1.80056C14.6565 1.88339 14.7635 1.9867 14.8619 2.10764C14.9214 2.17822 15.0063 2.2226 15.0982 2.23124C15.1901 2.23987 15.2818 2.21207 15.3534 2.15382C15.4251 2.09556 15.471 2.01151 15.4813 1.91975C15.4916 1.82799 15.4654 1.73585 15.4085 1.66317C15.2724 1.49588 15.1219 1.35113 14.9611 1.23291C14.257 0.715406 13.4722 0.701531 13.1249 0.726891C12.839 0.489844 12.1164 0 11.0247 0C10.4097 0 8.301 0.118969 6.9847 1.64986C6.15731 2.61211 5.84119 3.91172 6.04308 5.5148C5.71912 5.79328 5.51334 6.20555 5.51334 6.66525C5.51334 7.50187 6.19397 8.1825 7.03059 8.1825C7.09425 8.1825 7.1572 8.17828 7.21936 8.17059C7.34644 9.23648 7.91161 10.1698 8.73038 10.7834C8.31558 11.0019 7.74862 11.3647 7.16869 11.9341C7.10294 11.9997 7.06579 12.0887 7.06533 12.1816C7.06487 12.2745 7.10114 12.3639 7.16623 12.4302C7.23133 12.4965 7.31999 12.5344 7.4129 12.5356C7.50581 12.5368 7.59544 12.5013 7.66228 12.4368C8.30377 11.807 8.92931 11.4602 9.28533 11.2956L9.88908 12.8256L9.46941 15.1241H5.97183C6.19069 14.5212 6.47077 13.9654 6.80733 13.4667C6.83321 13.4284 6.85129 13.3853 6.86053 13.34C6.86976 13.2947 6.86998 13.248 6.86117 13.2026C6.85235 13.1571 6.83468 13.1139 6.80915 13.0753C6.78363 13.0368 6.75075 13.0036 6.71241 12.9777C6.67407 12.9518 6.63101 12.9338 6.58569 12.9245C6.54036 12.9153 6.49366 12.9151 6.44826 12.9239C6.40285 12.9327 6.35962 12.9504 6.32104 12.9759C6.28246 13.0014 6.24928 13.0343 6.22341 13.0726C5.81002 13.6851 5.47598 14.3745 5.22708 15.1241H2.646C1.67484 15.1241 0.884766 15.9142 0.884766 16.8853V22.2387C0.884766 23.2098 1.67484 23.9999 2.646 23.9999H14.8053C14.8978 23.9984 14.9859 23.9606 15.0507 23.8947C15.1156 23.8288 15.1519 23.7401 15.1519 23.6476C15.1519 23.5552 15.1156 23.4665 15.0507 23.4006C14.9859 23.3347 14.8978 23.2969 14.8053 23.2954H2.646C2.0633 23.2954 1.58925 22.8213 1.58925 22.2386V16.8854C1.58925 16.3027 2.0633 15.8287 2.646 15.8287H19.3521C19.9348 15.8287 20.4088 16.3027 20.4088 16.8854V22.2388C20.4088 22.8215 19.9348 23.2955 19.3521 23.2955H16.2143C16.1219 23.297 16.0337 23.3348 15.9689 23.4007C15.9041 23.4666 15.8677 23.5553 15.8677 23.6478C15.8677 23.7402 15.9041 23.829 15.9689 23.8949C16.0337 23.9608 16.1219 23.9985 16.2143 24H19.3521C20.3232 24 21.1133 23.21 21.1133 22.2388V16.8854C21.1133 15.9142 20.3232 15.1241 19.3521 15.1241ZM11.556 12.4377H10.4933L10.0971 11.4336C10.7061 11.5857 11.3432 11.5857 11.9522 11.4336L11.556 12.4377ZM15.8315 6.66525C15.8315 7.11342 15.4669 7.47802 15.0187 7.47802C14.9647 7.47775 14.9109 7.47211 14.858 7.46119V5.86931C14.9109 5.85839 14.9647 5.85275 15.0187 5.85248C15.4669 5.85253 15.8315 6.21712 15.8315 6.66525ZM6.21783 6.66525C6.21783 6.21708 6.58242 5.85248 7.03059 5.85248C7.0853 5.85248 7.13878 5.85877 7.19128 5.86931V7.46119C7.13841 7.47212 7.08458 7.47775 7.03059 7.47802C6.58242 7.47802 6.21783 7.11342 6.21783 6.66525ZM7.89577 7.71431V5.92191C8.75034 5.76394 9.73303 5.35584 10.8225 4.70597C11.2572 4.44633 11.6796 4.16654 12.0882 3.86752C12.4721 4.36495 13.306 5.36212 14.1535 5.83547V7.71431C14.1535 9.43959 12.7499 10.8432 11.0247 10.8432C9.29934 10.8432 7.89577 9.43959 7.89577 7.71431ZM10.1855 15.1241L10.5473 13.1422H11.502L11.8639 15.1241H10.1855ZM12.5799 15.1241L12.1603 12.8257L12.7642 11.2951C13.4568 11.6151 15.172 12.6299 16.0776 15.1241H12.5799Z" fill="#0A9829"/>
</svg>
