<svg width="16" height="16" viewBox="0 0 16 16" fill="none" xmlns="http://www.w3.org/2000/svg">
<path d="M3.39464 13.1877L3.62163 12.7422H3.62163L3.39464 13.1877ZM2.81195 12.605L3.25745 12.378H3.25745L2.81195 12.605ZM12.6053 13.1877L12.3783 12.7422H12.3783L12.6053 13.1877ZM13.188 12.605L12.7425 12.378V12.378L13.188 12.605ZM12.6053 4.14502L12.3783 4.59052L12.3783 4.59052L12.6053 4.14502ZM13.188 4.72771L12.7425 4.9547L13.188 4.72771ZM3.39464 4.14502L3.16764 3.69951H3.16764L3.39464 4.14502ZM2.81195 4.72771L2.36645 4.50071H2.36645L2.81195 4.72771ZM10.364 9.92703L10.591 9.48153L10.364 9.92703ZM10.0726 9.63569L10.5181 9.40869L10.0726 9.63569ZM14.594 9.63569L14.1485 9.40869L14.594 9.63569ZM14.3026 9.92703L14.0756 9.48153L14.3026 9.92703ZM14.3026 7.40569L14.0756 7.85119L14.3026 7.40569ZM14.594 7.69703L14.1485 7.92403L14.594 7.69703ZM10.364 7.40569L10.591 7.85119L10.364 7.40569ZM10.0726 7.69703L10.5181 7.92403L10.0726 7.69703ZM3.81426 3.53545C3.55787 3.63801 3.43316 3.929 3.53572 4.18539C3.63828 4.44178 3.92926 4.56649 4.18565 4.46393L3.81426 3.53545ZM9.75237 1.69873L9.56667 1.23449V1.23449L9.75237 1.69873ZM10.1666 3.99969C10.1666 4.27584 10.3905 4.49969 10.6666 4.49969C10.9428 4.49969 11.1666 4.27584 11.1666 3.99969H10.1666ZM4.79996 4.49969H11.2V3.49969H4.79996V4.49969ZM11.2 12.833H4.79996V13.833H11.2V12.833ZM3.16663 11.1997V6.13303H2.16663V11.1997H3.16663ZM12.8333 6.13303V7.49969H13.8333V6.13303H12.8333ZM12.8333 10.1247V11.1997H13.8333V10.1247H12.8333ZM4.79996 12.833C4.41834 12.833 4.1622 12.8326 3.96494 12.8165C3.77353 12.8009 3.68201 12.773 3.62163 12.7422L3.16764 13.6332C3.39249 13.7478 3.63026 13.7925 3.88351 13.8132C4.13093 13.8334 4.43484 13.833 4.79996 13.833V12.833ZM2.16663 11.1997C2.16663 11.5648 2.16624 11.8687 2.18645 12.1161C2.20714 12.3694 2.25188 12.6072 2.36645 12.832L3.25745 12.378C3.22669 12.3176 3.19877 12.2261 3.18313 12.0347C3.16701 11.8375 3.16663 11.5813 3.16663 11.1997H2.16663ZM3.62163 12.7422C3.46483 12.6623 3.33735 12.5348 3.25745 12.378L2.36645 12.832C2.54222 13.177 2.82268 13.4574 3.16764 13.6332L3.62163 12.7422ZM11.2 13.833C11.5651 13.833 11.869 13.8334 12.1164 13.8132C12.3697 13.7925 12.6074 13.7478 12.8323 13.6332L12.3783 12.7422C12.3179 12.773 12.2264 12.8009 12.035 12.8165C11.8377 12.8326 11.5816 12.833 11.2 12.833V13.833ZM12.8333 11.1997C12.8333 11.5813 12.8329 11.8375 12.8168 12.0347C12.8011 12.2261 12.7732 12.3176 12.7425 12.378L13.6335 12.832C13.748 12.6072 13.7928 12.3694 13.8135 12.1161C13.8337 11.8687 13.8333 11.5648 13.8333 11.1997H12.8333ZM12.8323 13.6332C13.1772 13.4574 13.4577 13.177 13.6335 12.832L12.7425 12.378C12.6626 12.5348 12.5351 12.6623 12.3783 12.7422L12.8323 13.6332ZM11.2 4.49969C11.5816 4.49969 11.8377 4.50008 12.035 4.5162C12.2264 4.53184 12.3179 4.55976 12.3783 4.59052L12.8323 3.69951C12.6074 3.58495 12.3697 3.54021 12.1164 3.51952C11.869 3.4993 11.5651 3.49969 11.2 3.49969V4.49969ZM13.8333 6.13303C13.8333 5.76791 13.8337 5.464 13.8135 5.21658C13.7928 4.96332 13.748 4.72555 13.6335 4.50071L12.7425 4.9547C12.7732 5.01507 12.8011 5.1066 12.8168 5.29801C12.8329 5.49526 12.8333 5.75141 12.8333 6.13303H13.8333ZM12.3783 4.59052C12.5351 4.67042 12.6626 4.7979 12.7425 4.9547L13.6335 4.50071C13.4577 4.15575 13.1772 3.87528 12.8323 3.69951L12.3783 4.59052ZM4.79996 3.49969C4.43484 3.49969 4.13093 3.4993 3.88351 3.51952C3.63026 3.54021 3.39249 3.58495 3.16764 3.69951L3.62163 4.59052C3.68201 4.55976 3.77353 4.53184 3.96494 4.5162C4.1622 4.50008 4.41834 4.49969 4.79996 4.49969V3.49969ZM3.16663 6.13303C3.16663 5.75141 3.16701 5.49526 3.18313 5.29801C3.19877 5.1066 3.22669 5.01507 3.25745 4.9547L2.36645 4.50071C2.25188 4.72555 2.20714 4.96332 2.18645 5.21658C2.16624 5.464 2.16663 5.76791 2.16663 6.13303H3.16663ZM3.16764 3.69951C2.82268 3.87528 2.54222 4.15575 2.36645 4.50071L3.25745 4.9547C3.33735 4.7979 3.46483 4.67042 3.62163 4.59052L3.16764 3.69951ZM11.0666 7.83303H13.6V6.83303H11.0666V7.83303ZM14.1666 8.39969V8.93303H15.1666V8.39969H14.1666ZM13.6 9.49969H11.0666V10.4997H13.6V9.49969ZM10.5 8.93303V8.39969H9.49996V8.93303H10.5ZM11.0666 9.49969C10.8717 9.49969 10.7556 9.4993 10.6695 9.49227C10.5892 9.48571 10.58 9.47596 10.591 9.48153L10.137 10.3725C10.2905 10.4508 10.446 10.4773 10.588 10.4889C10.7243 10.5001 10.8882 10.4997 11.0666 10.4997V9.49969ZM9.49996 8.93303C9.49996 9.11146 9.49957 9.27536 9.5107 9.41161C9.52231 9.5537 9.54889 9.70914 9.62712 9.86268L10.5181 9.40869C10.5237 9.41962 10.5139 9.41042 10.5074 9.33018C10.5003 9.24409 10.5 9.12796 10.5 8.93303H9.49996ZM10.591 9.48153C10.5596 9.46555 10.5341 9.44005 10.5181 9.40869L9.62712 9.86268C9.73897 10.0822 9.91745 10.2607 10.137 10.3725L10.591 9.48153ZM14.1666 8.93303C14.1666 9.12796 14.1662 9.24409 14.1592 9.33018C14.1526 9.41042 14.1429 9.41962 14.1485 9.40869L15.0395 9.86268C15.1177 9.70914 15.1443 9.5537 15.1559 9.41161C15.167 9.27536 15.1666 9.11146 15.1666 8.93303H14.1666ZM13.6 10.4997C13.7784 10.4997 13.9423 10.5001 14.0785 10.4889C14.2206 10.4773 14.3761 10.4508 14.5296 10.3725L14.0756 9.48153C14.0866 9.47596 14.0774 9.48571 13.9971 9.49227C13.911 9.4993 13.7949 9.49969 13.6 9.49969V10.4997ZM14.1485 9.40869C14.1325 9.44005 14.107 9.46555 14.0756 9.48153L14.5296 10.3725C14.7491 10.2607 14.9276 10.0822 15.0395 9.86268L14.1485 9.40869ZM13.6 7.83303C13.7949 7.83303 13.911 7.83342 13.9971 7.84045C14.0774 7.84701 14.0866 7.85676 14.0756 7.85119L14.5296 6.96019C14.3761 6.88195 14.2206 6.85538 14.0785 6.84377C13.9423 6.83264 13.7784 6.83303 13.6 6.83303V7.83303ZM15.1666 8.39969C15.1666 8.22126 15.167 8.05736 15.1559 7.92111C15.1443 7.77902 15.1177 7.62358 15.0395 7.47004L14.1485 7.92403C14.1429 7.9131 14.1526 7.9223 14.1592 8.00254C14.1662 8.08863 14.1666 8.20476 14.1666 8.39969H15.1666ZM14.0756 7.85119C14.107 7.86717 14.1325 7.89267 14.1485 7.92403L15.0395 7.47004C14.9276 7.25051 14.7491 7.07204 14.5296 6.96019L14.0756 7.85119ZM11.0666 6.83303C10.8882 6.83303 10.7243 6.83264 10.588 6.84377C10.446 6.85538 10.2905 6.88195 10.137 6.96019L10.591 7.85119C10.58 7.85676 10.5892 7.84701 10.6695 7.84045C10.7556 7.83342 10.8717 7.83303 11.0666 7.83303V6.83303ZM10.5 8.39969C10.5 8.20476 10.5003 8.08863 10.5074 8.00254C10.5139 7.9223 10.5237 7.9131 10.5181 7.92403L9.62712 7.47004C9.54889 7.62358 9.52231 7.77902 9.5107 7.92111C9.49957 8.05736 9.49996 8.22126 9.49996 8.39969H10.5ZM10.137 6.96019C9.91745 7.07204 9.73897 7.25051 9.62712 7.47004L10.5181 7.92403C10.5341 7.89267 10.5596 7.86717 10.591 7.85119L10.137 6.96019ZM4.18565 4.46393L9.93806 2.16297L9.56667 1.23449L3.81426 3.53545L4.18565 4.46393ZM10.1666 2.31771V3.99969H11.1666V2.31771H10.1666ZM9.93806 2.16297C10.0475 2.11918 10.1666 2.1998 10.1666 2.31771H11.1666C11.1666 1.49234 10.333 0.927955 9.56667 1.23449L9.93806 2.16297Z" fill="#0A9829"/>
</svg>
