<svg width="300" height="300" viewBox="0 0 20 20" fill="none" xmlns="http://www.w3.org/2000/svg">
<path d="M14 19H6.00003C4.89546 19 4.00003 18.1046 4.00003 17V9.56708C4.00003 8.98879 3.30084 8.69918 2.89193 9.10809C2.5186 9.48142 1.87946 9.2766 1.79266 8.75582L1.22389 5.34318C1.08881 4.53273 1.46315 3.72212 2.16769 3.2994L5.81457 1.11127C5.92078 1.04754 6.05775 1.07216 6.13513 1.16888C8.11653 3.64563 11.8835 3.64563 13.8649 1.16888C13.9423 1.07216 14.0793 1.04754 14.1855 1.11127L17.8324 3.2994C18.5369 3.72212 18.9112 4.53273 18.7762 5.34318L18.2074 8.75582C18.1206 9.2766 17.4815 9.48142 17.1081 9.10809C16.6992 8.69918 16 8.98879 16 9.56708V17C16 18.1046 15.1046 19 14 19Z" fill="white" stroke="white" stroke-width="2"/>
</svg>
