<svg width="14" height="14" viewBox="0 0 14 14" fill="none" xmlns="http://www.w3.org/2000/svg">
<path d="M1.39464 12.6877L1.62163 12.2422H1.62163L1.39464 12.6877ZM0.811951 12.105L1.25745 11.878H1.25745L0.811951 12.105ZM10.6053 12.6877L10.3783 12.2422H10.3783L10.6053 12.6877ZM11.188 12.105L10.7425 11.878V11.878L11.188 12.105ZM10.6053 3.64502L10.3783 4.09052L10.3783 4.09052L10.6053 3.64502ZM11.188 4.22771L10.7425 4.4547L11.188 4.22771ZM1.39464 3.64502L1.16764 3.19951H1.16764L1.39464 3.64502ZM0.811951 4.22771L0.366447 4.00071H0.366447L0.811951 4.22771ZM8.36397 9.42703L8.59096 8.98153L8.36397 9.42703ZM8.07262 9.13569L8.51813 8.90869L8.07262 9.13569ZM12.594 9.13569L12.1485 8.90869L12.594 9.13569ZM12.3026 9.42703L12.0756 8.98153L12.3026 9.42703ZM12.3026 6.90569L12.0756 7.35119L12.3026 6.90569ZM12.594 7.19703L12.1485 7.42403L12.594 7.19703ZM8.36397 6.90569L8.59096 7.35119L8.36397 6.90569ZM8.07262 7.19703L8.51813 7.42403L8.07262 7.19703ZM1.81426 3.03545C1.55787 3.13801 1.43316 3.429 1.53572 3.68539C1.63828 3.94178 1.92926 4.06649 2.18565 3.96393L1.81426 3.03545ZM7.75237 1.19873L7.56667 0.734492V0.734492L7.75237 1.19873ZM8.16663 3.49969C8.16663 3.77584 8.39048 3.99969 8.66663 3.99969C8.94277 3.99969 9.16663 3.77584 9.16663 3.49969H8.16663ZM2.79996 3.99969H9.19996V2.99969H2.79996V3.99969ZM9.19996 12.333H2.79996V13.333H9.19996V12.333ZM1.16663 10.6997V5.63303H0.166626V10.6997H1.16663ZM10.8333 5.63303V6.99969H11.8333V5.63303H10.8333ZM10.8333 9.62469V10.6997H11.8333V9.62469H10.8333ZM2.79996 12.333C2.41834 12.333 2.1622 12.3326 1.96494 12.3165C1.77353 12.3009 1.68201 12.273 1.62163 12.2422L1.16764 13.1332C1.39249 13.2478 1.63026 13.2925 1.88351 13.3132C2.13093 13.3334 2.43484 13.333 2.79996 13.333V12.333ZM0.166626 10.6997C0.166626 11.0648 0.166237 11.3687 0.186452 11.6161C0.207144 11.8694 0.251885 12.1072 0.366447 12.332L1.25745 11.878C1.22669 11.8176 1.19877 11.7261 1.18313 11.5347C1.16701 11.3375 1.16663 11.0813 1.16663 10.6997H0.166626ZM1.62163 12.2422C1.46483 12.1623 1.33735 12.0348 1.25745 11.878L0.366447 12.332C0.542215 12.677 0.82268 12.9574 1.16764 13.1332L1.62163 12.2422ZM9.19996 13.333C9.56508 13.333 9.86899 13.3334 10.1164 13.3132C10.3697 13.2925 10.6074 13.2478 10.8323 13.1332L10.3783 12.2422C10.3179 12.273 10.2264 12.3009 10.035 12.3165C9.83772 12.3326 9.58158 12.333 9.19996 12.333V13.333ZM10.8333 10.6997C10.8333 11.0813 10.8329 11.3375 10.8168 11.5347C10.8011 11.7261 10.7732 11.8176 10.7425 11.878L11.6335 12.332C11.748 12.1072 11.7928 11.8694 11.8135 11.6161C11.8337 11.3687 11.8333 11.0648 11.8333 10.6997H10.8333ZM10.8323 13.1332C11.1772 12.9574 11.4577 12.677 11.6335 12.332L10.7425 11.878C10.6626 12.0348 10.5351 12.1623 10.3783 12.2422L10.8323 13.1332ZM9.19996 3.99969C9.58158 3.99969 9.83772 4.00008 10.035 4.0162C10.2264 4.03184 10.3179 4.05976 10.3783 4.09052L10.8323 3.19951C10.6074 3.08495 10.3697 3.04021 10.1164 3.01952C9.86899 2.9993 9.56508 2.99969 9.19996 2.99969V3.99969ZM11.8333 5.63303C11.8333 5.26791 11.8337 4.964 11.8135 4.71658C11.7928 4.46332 11.748 4.22555 11.6335 4.00071L10.7425 4.4547C10.7732 4.51507 10.8011 4.6066 10.8168 4.79801C10.8329 4.99526 10.8333 5.25141 10.8333 5.63303H11.8333ZM10.3783 4.09052C10.5351 4.17042 10.6626 4.2979 10.7425 4.4547L11.6335 4.00071C11.4577 3.65575 11.1772 3.37528 10.8323 3.19951L10.3783 4.09052ZM2.79996 2.99969C2.43484 2.99969 2.13093 2.9993 1.88351 3.01952C1.63026 3.04021 1.39249 3.08495 1.16764 3.19951L1.62163 4.09052C1.68201 4.05976 1.77353 4.03184 1.96494 4.0162C2.1622 4.00008 2.41834 3.99969 2.79996 3.99969V2.99969ZM1.16663 5.63303C1.16663 5.25141 1.16701 4.99526 1.18313 4.79801C1.19877 4.6066 1.22669 4.51507 1.25745 4.4547L0.366447 4.00071C0.251885 4.22555 0.207144 4.46332 0.186452 4.71658C0.166237 4.964 0.166626 5.26791 0.166626 5.63303H1.16663ZM1.16764 3.19951C0.82268 3.37528 0.542215 3.65575 0.366447 4.00071L1.25745 4.4547C1.33735 4.2979 1.46483 4.17042 1.62163 4.09052L1.16764 3.19951ZM9.06663 7.33303H11.6V6.33303H9.06663V7.33303ZM12.1666 7.89969V8.43303H13.1666V7.89969H12.1666ZM11.6 8.99969H9.06663V9.99969H11.6V8.99969ZM8.49996 8.43303V7.89969H7.49996V8.43303H8.49996ZM9.06663 8.99969C8.87169 8.99969 8.75556 8.9993 8.66948 8.99227C8.58923 8.98571 8.58003 8.97596 8.59096 8.98153L8.13697 9.87253C8.29051 9.95077 8.44596 9.97734 8.58805 9.98895C8.7243 10.0001 8.88819 9.99969 9.06663 9.99969V8.99969ZM7.49996 8.43303C7.49996 8.61146 7.49957 8.77536 7.5107 8.91161C7.52231 9.0537 7.54889 9.20914 7.62712 9.36268L8.51813 8.90869C8.52369 8.91962 8.51394 8.91042 8.50738 8.83018C8.50035 8.74409 8.49996 8.62796 8.49996 8.43303H7.49996ZM8.59096 8.98153C8.5596 8.96555 8.5341 8.94005 8.51813 8.90869L7.62712 9.36268C7.73897 9.5822 7.91745 9.76068 8.13697 9.87253L8.59096 8.98153ZM12.1666 8.43303C12.1666 8.62796 12.1662 8.74409 12.1592 8.83018C12.1526 8.91042 12.1429 8.91962 12.1485 8.90869L13.0395 9.36268C13.1177 9.20914 13.1443 9.0537 13.1559 8.91161C13.167 8.77536 13.1666 8.61146 13.1666 8.43303H12.1666ZM11.6 9.99969C11.7784 9.99969 11.9423 10.0001 12.0785 9.98895C12.2206 9.97734 12.3761 9.95077 12.5296 9.87253L12.0756 8.98153C12.0866 8.97596 12.0774 8.98571 11.9971 8.99227C11.911 8.9993 11.7949 8.99969 11.6 8.99969V9.99969ZM12.1485 8.90869C12.1325 8.94005 12.107 8.96555 12.0756 8.98153L12.5296 9.87253C12.7491 9.76068 12.9276 9.5822 13.0395 9.36268L12.1485 8.90869ZM11.6 7.33303C11.7949 7.33303 11.911 7.33342 11.9971 7.34045C12.0774 7.34701 12.0866 7.35676 12.0756 7.35119L12.5296 6.46019C12.3761 6.38195 12.2206 6.35538 12.0785 6.34377C11.9423 6.33264 11.7784 6.33303 11.6 6.33303V7.33303ZM13.1666 7.89969C13.1666 7.72126 13.167 7.55736 13.1559 7.42111C13.1443 7.27902 13.1177 7.12358 13.0395 6.97004L12.1485 7.42403C12.1429 7.4131 12.1526 7.4223 12.1592 7.50254C12.1662 7.58863 12.1666 7.70476 12.1666 7.89969H13.1666ZM12.0756 7.35119C12.107 7.36717 12.1325 7.39267 12.1485 7.42403L13.0395 6.97004C12.9276 6.75051 12.7491 6.57204 12.5296 6.46019L12.0756 7.35119ZM9.06663 6.33303C8.88819 6.33303 8.7243 6.33264 8.58805 6.34377C8.44596 6.35538 8.29051 6.38195 8.13697 6.46019L8.59096 7.35119C8.58003 7.35676 8.58923 7.34701 8.66948 7.34045C8.75556 7.33342 8.87169 7.33303 9.06663 7.33303V6.33303ZM8.49996 7.89969C8.49996 7.70476 8.50035 7.58863 8.50738 7.50254C8.51394 7.4223 8.52369 7.4131 8.51813 7.42403L7.62712 6.97004C7.54889 7.12358 7.52231 7.27902 7.5107 7.42111C7.49957 7.55736 7.49996 7.72126 7.49996 7.89969H8.49996ZM8.13697 6.46019C7.91745 6.57204 7.73897 6.75051 7.62712 6.97004L8.51813 7.42403C8.5341 7.39267 8.5596 7.36717 8.59096 7.35119L8.13697 6.46019ZM2.18565 3.96393L7.93806 1.66297L7.56667 0.734492L1.81426 3.03545L2.18565 3.96393ZM8.16663 1.81771V3.49969H9.16663V1.81771H8.16663ZM7.93806 1.66297C8.04754 1.61918 8.16663 1.6998 8.16663 1.81771H9.16663C9.16663 0.992339 8.33301 0.427955 7.56667 0.734492L7.93806 1.66297Z" fill="white"/>
</svg>
