<svg width="24" height="22" viewBox="0 0 24 22" fill="none" xmlns="http://www.w3.org/2000/svg">
<path d="M23.861 15.6806L22.7168 14.5457C22.5329 14.3633 22.2361 14.3646 22.0537 14.5484C21.8713 14.7323 21.8726 15.0291 22.0565 15.2115L23.2006 16.3463C23.2883 16.4336 23.407 16.4825 23.5307 16.4823C23.5926 16.4824 23.6539 16.4702 23.7111 16.4464C23.7682 16.4225 23.82 16.3876 23.8636 16.3436C24.046 16.1598 24.0448 15.8629 23.861 15.6806ZM21.551 13.3846C21.3679 13.2015 21.0711 13.2015 20.8879 13.3846L20.8871 13.3854C20.704 13.5685 20.7044 13.8649 20.8875 14.048C20.931 14.0916 20.9826 14.1261 21.0395 14.1497C21.0963 14.1732 21.1573 14.1853 21.2188 14.1852C21.339 14.1852 21.4593 14.1393 21.5509 14.0477C21.734 13.8646 21.734 13.5677 21.551 13.3846Z" fill="#0A9829"/>
<path d="M17.5544 15.5469L22.1026 10.9987C22.7914 10.3099 22.7914 9.189 22.1025 8.50012C21.8686 8.26581 21.5733 8.10241 21.2505 8.02879C21.3588 7.79549 21.4148 7.54128 21.4144 7.28404C21.4144 6.8121 21.2306 6.36843 20.8969 6.03478C20.6352 5.77303 20.3057 5.604 19.9481 5.5431C20.1494 4.9297 20.0071 4.22718 19.5202 3.74034C19.2627 3.48246 18.9314 3.31108 18.5721 3.24993C18.6311 3.07096 18.6611 2.88371 18.661 2.69526C18.661 2.22332 18.4772 1.77965 18.1436 1.446C17.8099 1.11234 17.3662 0.928542 16.8943 0.928542C16.5946 0.928542 16.3065 1.00289 16.0505 1.14248L16.0053 1.09387C15.4174 0.462089 14.5852 0.0997925 13.7223 0.0997925H10.0407C9.78181 0.0997925 9.57185 0.309746 9.57185 0.568636V1.18345C9.57185 1.4295 9.61348 1.66903 9.69307 1.89426C9.47812 1.80521 9.24769 1.75955 9.01502 1.75992C8.54309 1.75992 8.09941 1.94371 7.76571 2.27737C7.27859 2.7645 7.13641 3.46753 7.33821 4.08112C6.97857 4.14214 6.64685 4.31361 6.38909 4.57171C6.05543 4.90542 5.87163 5.34909 5.87163 5.82098C5.87163 6.01204 5.90224 6.19832 5.96023 6.37462C5.60304 6.4357 5.27388 6.60464 5.01241 6.86615C4.47443 7.40414 4.35663 8.2057 4.65902 8.85909C4.33882 8.93226 4.04473 9.09351 3.8067 9.33149C3.11787 10.0203 3.11787 11.1412 3.8067 11.8301L4.74204 12.7654L0.13732 17.37C-0.0457734 17.5531 -0.0457734 17.8499 0.13732 18.0331C0.228867 18.1246 0.348867 18.1704 0.46882 18.1704C0.588773 18.1704 0.708773 18.1246 0.80032 18.0331L5.44948 13.3839C5.71268 13.5341 6.01137 13.6145 6.32266 13.6145C6.79455 13.6145 7.23823 13.4307 7.57193 13.097C7.93446 12.7345 8.10593 12.2523 8.08685 11.7764C8.11062 11.7774 8.13438 11.7781 8.15815 11.7781C8.61049 11.778 9.06307 11.6058 9.40741 11.2615C9.74107 10.9278 9.92487 10.4841 9.92487 10.0122C9.92487 9.98835 9.92407 9.96464 9.92313 9.94092C9.94662 9.94185 9.9701 9.9426 9.99363 9.9426C10.446 9.9426 10.8985 9.77039 11.2429 9.42599C11.5766 9.09229 11.7604 8.64862 11.7604 8.17673C11.7604 8.15287 11.7596 8.12915 11.7586 8.10543C11.7821 8.10637 11.8056 8.10712 11.8291 8.10712C12.2816 8.10712 12.734 7.9349 13.0784 7.59051C13.7256 6.94326 13.7646 5.91468 13.1956 5.22135L16.3078 2.10914C16.4644 1.95248 16.6725 1.86628 16.894 1.86628C17.1155 1.86628 17.3237 1.95248 17.4803 2.10914C17.5575 2.18594 17.6187 2.27729 17.6604 2.37792C17.7021 2.47854 17.7234 2.58644 17.7231 2.69535C17.7231 2.91679 17.6369 3.12501 17.4802 3.28157L17.0214 3.74043L15.3565 5.40534C15.1734 5.58843 15.1734 5.88529 15.3565 6.06843C15.448 6.15993 15.568 6.20578 15.688 6.20578C15.8079 6.20578 15.9279 6.15998 16.0195 6.06843L17.6844 4.40353C18.0076 4.08028 18.5336 4.08023 18.8568 4.40348C19.1801 4.72678 19.1801 5.25271 18.8568 5.57601L18.3979 6.03492L17.1919 7.24092C17.0089 7.42401 17.0089 7.72087 17.1919 7.90401C17.2835 7.99551 17.4035 8.04135 17.5234 8.04135C17.6434 8.04135 17.7634 7.99556 17.8549 7.90401L19.0609 6.69801C19.1377 6.62077 19.2291 6.55953 19.3297 6.51784C19.4303 6.47616 19.5382 6.45485 19.6472 6.45515C19.8686 6.45515 20.0768 6.54135 20.2334 6.69801C20.3107 6.77481 20.3719 6.86617 20.4136 6.96679C20.4552 7.06742 20.4765 7.17531 20.4762 7.28423C20.4762 7.50567 20.39 7.71388 20.2334 7.87045L19.6035 8.50031L19.0274 9.07645C18.8443 9.25954 18.8443 9.5564 19.0274 9.73954C19.1189 9.83104 19.2389 9.87688 19.3589 9.87688C19.4788 9.87688 19.5988 9.83109 19.6904 9.73954L20.2669 9.16298C20.5902 8.84024 21.1159 8.84029 21.439 9.1634C21.7623 9.48665 21.7623 10.0126 21.439 10.3359L16.8908 14.8841C15.7488 16.0262 14.2309 16.6874 12.6169 16.7459C12.4982 16.7503 12.3855 16.7995 12.3017 16.8836L8.10021 21.1007C7.91745 21.2841 7.91796 21.581 8.10143 21.7637C8.14489 21.8071 8.19649 21.8416 8.25326 21.865C8.31004 21.8885 8.37089 21.9005 8.43232 21.9005C8.49405 21.9005 8.55518 21.8884 8.61218 21.8647C8.66918 21.841 8.72093 21.8063 8.76443 21.7625L11.8548 18.6608C12.6397 19.1644 13.5629 19.4038 14.5016 19.3417L16.9202 21.7604C16.9637 21.804 17.0154 21.8386 17.0723 21.8622C17.1292 21.8857 17.1901 21.8979 17.2517 21.8978C17.3133 21.8979 17.3743 21.8858 17.4312 21.8622C17.4881 21.8386 17.5397 21.8041 17.5832 21.7604C17.7663 21.5774 17.7663 21.2805 17.5832 21.0974L15.0116 18.5255C14.9635 18.4774 14.9055 18.4404 14.8417 18.4169C14.7778 18.3935 14.7096 18.3842 14.6418 18.3897L14.4932 18.4019C13.8132 18.4582 13.1318 18.3099 12.5367 17.976L12.8381 17.6737C14.6201 17.5637 16.2884 16.8129 17.5544 15.5469ZM6.90893 12.434C6.83213 12.5112 6.74078 12.5724 6.64015 12.6141C6.53953 12.6558 6.43163 12.6771 6.32271 12.6768C6.21379 12.6771 6.10589 12.6558 6.00526 12.6141C5.90464 12.5725 5.81328 12.5112 5.73649 12.434L4.46965 11.1672C4.1464 10.8439 4.1464 10.3179 4.46965 9.99464C4.54645 9.91739 4.63781 9.85615 4.73845 9.81447C4.83908 9.77278 4.94699 9.75147 5.05591 9.75178C5.27735 9.75178 5.48557 9.83798 5.64213 9.99464L6.90898 11.2614C7.23218 11.5847 7.23218 12.1107 6.90893 12.434ZM8.74451 10.5984C8.42121 10.9216 7.89513 10.9216 7.57198 10.5984L6.30513 9.33154L5.67523 8.70164C5.35198 8.37839 5.35198 7.8524 5.67523 7.52915C5.75202 7.45191 5.84338 7.39068 5.94401 7.34899C6.04463 7.3073 6.15253 7.28599 6.26145 7.28629C6.48293 7.28629 6.6911 7.37249 6.84766 7.52915L8.74437 9.42585C8.90102 9.58251 8.98727 9.79068 8.98727 10.0121C8.98727 10.2336 8.90107 10.4418 8.74451 10.5984ZM10.58 8.76285C10.2567 9.08606 9.73066 9.0861 9.40746 8.76285L7.05185 6.40724C6.97462 6.33045 6.91339 6.23909 6.87171 6.13846C6.83004 6.03784 6.80873 5.92994 6.80904 5.82103C6.80904 5.59959 6.89524 5.39137 7.0519 5.23481C7.12883 5.15778 7.22022 5.09671 7.32082 5.05511C7.42142 5.01351 7.52925 4.99218 7.63812 4.99237C7.85027 4.99237 8.06238 5.07309 8.22396 5.23443L9.29759 6.30806L10.5799 7.59037H10.5799C10.6572 7.66718 10.7184 7.75854 10.76 7.85916C10.8017 7.95979 10.823 8.06768 10.8227 8.17659C10.8231 8.28551 10.8018 8.39342 10.7601 8.49405C10.7185 8.59469 10.6572 8.68606 10.58 8.76285ZM12.4155 6.92732C12.0923 7.25057 11.5663 7.25057 11.243 6.92732L8.88743 4.57171L8.88663 4.57096L8.42852 4.11285C8.10527 3.78956 8.10527 3.26362 8.42852 2.94032C8.50545 2.86328 8.59685 2.80219 8.69746 2.76058C8.79807 2.71897 8.90591 2.69765 9.01479 2.69784C9.22709 2.69784 9.43943 2.77865 9.60101 2.94032L12.4154 5.75475C12.4927 5.83154 12.5539 5.92289 12.5956 6.02352C12.6373 6.12415 12.6586 6.23204 12.6583 6.34096C12.6586 6.4499 12.6374 6.55782 12.5957 6.65848C12.554 6.75913 12.4928 6.85051 12.4155 6.92732ZM12.5388 4.55207L11.2511 3.26432C11.3986 3.29596 11.5491 3.31194 11.7 3.312H11.7104L12.997 3.30595C13.2559 3.30473 13.4649 3.09384 13.4636 2.8349C13.4624 2.57671 13.2528 2.36826 12.9949 2.36826H12.9926L11.706 2.37431H11.7002C11.3831 2.37431 11.085 2.25126 10.8602 2.02753C10.6339 1.80234 10.5094 1.50262 10.5094 1.1834V1.03743H13.7221C14.3256 1.03743 14.9076 1.29079 15.3188 1.73264L15.3379 1.75312L12.5388 4.55207Z" fill="#0A9829"/>
</svg>
